<?xml version="1.0" encoding="UTF-8"?>
<svg id="Layer_2" xmlns="http://www.w3.org/2000/svg" viewBox="0 0 181.88 54.83">
  <defs>
    <style>
      .cls-1 {
        fill: #e24a1d;
      }
    </style>
  </defs>
  <g id="Layer_1-2" data-name="Layer_1">
    <g>
      <g>
        <g>
          <path class="cls-1" d="M60.98,40.88h-5.73v-7.94c-1.47,4.99-4.59,8.28-10.04,8.28-4.65,0-9.19-2.21-9.92-6.29-.96-5.78,2.5-9.19,6.86-11-1.47-3.29.28-10.32,7.88-10.32,4.71,0,9.7,2.5,9.7,9.47v14.06c0,1.98.4,2.83,1.25,3.35v.4ZM55.26,31.92v-8.73c-.28-.11-1.64-.51-3.4-.51-6.18,0-14.57,3.06-12.13,13.04.74,3.06,4.03,4.93,6.86,4.76,4.93-.28,7.54-4.48,8.67-8.56ZM42.73,23.7c3.06-1.13,6.46-1.53,9.13-1.53,1.3,0,2.44.23,3.4.51v-.4c0-4.31-1.7-8.11-5.73-8.11-5.1,0-8.51,4.93-6.8,9.53Z"/>
          <path class="cls-1" d="M71.92,40.49v.4h-6.97v-.4c.85-.51,1.25-1.36,1.25-3.35V4.37c0-1.98-.17-2.55-1.25-2.72v-.45l5.33-1.19h.4v37.14c0,1.98.4,2.83,1.25,3.35Z"/>
          <path class="cls-1" d="M101.18,40.88h-5.73v-7.94c-1.47,4.99-4.59,8.28-10.04,8.28-4.65,0-9.19-2.21-9.92-6.29-.96-5.78,2.5-9.19,6.86-11-1.47-3.29.28-10.32,7.88-10.32,4.71,0,9.7,2.5,9.7,9.47v14.06c0,1.98.4,2.83,1.25,3.35v.4ZM95.45,31.92v-8.73c-.28-.11-1.64-.51-3.4-.51-6.18,0-14.57,3.06-12.13,13.04.74,3.06,4.03,4.93,6.86,4.76,4.93-.28,7.54-4.48,8.68-8.56ZM82.92,23.7c3.06-1.13,6.46-1.53,9.13-1.53,1.3,0,2.44.23,3.4.51v-.4c0-4.31-1.7-8.11-5.73-8.11-5.1,0-8.51,4.93-6.8,9.53Z"/>
          <path class="cls-1" d="M133.27,24.78c.34,14.06-12.7,16.44-19.05,16.44-1.25,0-2.38-.23-3.35-.51v9.75c0,1.98.17,2.55,1.25,2.72v.4l-5.33,1.25h-.4V17.97c0-1.98-.17-2.55-1.25-2.72v-.4l5.33-1.25h.4v15.54c1.02-6.58,3.91-15.54,11.85-15.54,4.65,0,10.32,3.97,10.55,11.17ZM128.85,23.98c-.28-4.93-3.74-10.32-8.62-9.36-6.35,1.25-9.36,13.1-9.36,17.86v7.88c.28.11,1.59.57,3.4.51,5.44-.06,15.37-2.44,14.57-16.9Z"/>
        </g>
        <path class="cls-1" d="M140.24,38.1c0,1.7-1.36,3.12-3.06,3.12s-3.12-1.42-3.12-3.12,1.42-3.06,3.12-3.06,3.06,1.36,3.06,3.06Z"/>
        <g>
          <path class="cls-1" d="M170.88,41.5h-5.73v-7.94c-1.47,4.99-4.59,8.28-10.04,8.28-4.65,0-9.19-2.21-9.92-6.29-.96-5.78,2.5-9.19,6.86-11-1.47-3.29.28-10.32,7.88-10.32,4.71,0,9.7,2.5,9.7,9.47v14.06c0,1.98.4,2.83,1.25,3.35v.4ZM165.15,32.55v-8.73c-.28-.11-1.64-.51-3.4-.51-6.18,0-14.57,3.06-12.13,13.04.74,3.06,4.03,4.93,6.86,4.76,4.93-.28,7.54-4.48,8.68-8.56ZM152.62,24.32c3.06-1.13,6.46-1.53,9.13-1.53,1.3,0,2.44.23,3.4.51v-.4c0-4.31-1.7-8.11-5.73-8.11-5.1,0-8.51,4.93-6.8,9.53Z"/>
          <path class="cls-1" d="M181.88,41.11v.4h-7.03v-.4c.85-.51,1.25-1.36,1.25-3.35v-19.17c0-1.98-.17-2.55-1.25-2.72v-.4l5.33-1.25h.4v23.53c0,1.98.4,2.83,1.3,3.35ZM175.53,6.97c0-1.47,1.19-2.67,2.67-2.67s2.67,1.19,2.67,2.67-1.19,2.67-2.67,2.67-2.67-1.19-2.67-2.67Z"/>
        </g>
      </g>
      <path class="cls-1" d="M33.44,36.3v-19.12c0-9.48-6.78-12.87-13.18-12.87-8.16,0-11.35,5.95-11.35,10.66h.82c-.15-5.19,4.02-9.89,9.83-9.89,5.47,0,7.78,5.16,7.78,11.02v.54c-1.31-.39-2.85-.69-4.62-.69-2.78,0-7.26.81-10.57,1.64-2.11.53-4.16,1.32-5.99,2.49C1.97,22.78-.83,27,.22,33.29c1,5.55,7.17,8.56,13.49,8.56,7.4,0,11.64-4.47,13.64-11.25v10.79h7.78v-.54c-1.16-.69-1.7-1.85-1.7-4.55ZM27.35,29.2c-1.54,5.55-5.09,11.25-11.79,11.64-3.85.23-8.32-2.31-9.33-6.48-3.31-13.57,8.09-17.73,16.49-17.73,2.39,0,4.24.54,4.62.69v11.87Z"/>
    </g>
  </g>
</svg>